<svg xmlns="http://www.w3.org/2000/svg" xmlns:xlink="http://www.w3.org/1999/xlink" width="375px" height="88px" viewBox="0 0 375 88"><title>logo_CSPyE_escritorio</title><g id="logo_CSPyE_escritorio" stroke="none" stroke-width="1" fill="none" fill-rule="evenodd"><g id="A" transform="translate(12, 13)"><polygon id="Fill-33" fill="#007932" points="29.5166381 -1.35341473e-15 42.0559952 -1.35341473e-15 67.0763008 62.6070357 54.4585905 62.6070357"></polygon><polygon id="Fill-34" fill="#368F3F" points="42.0557103 -1.35341473e-15 29.5177778 -1.35341473e-15 0 62.6070357 12.543631 62.6070357"></polygon><path d="M54.4597302,62.6101698 L67.0745913,62.6101698 C60.2778095,52.4271063 48.6644444,45.7129516 35.4797421,45.7129516 C33.4496825,45.7129516 31.4566627,45.8753563 29.5192024,46.1802214 L29.5192024,55.9672452 C31.4538135,55.5498365 33.462504,55.3219 35.5224802,55.3219 C42.8135992,55.3219 49.4550992,58.0813563 54.4597302,62.6101698" id="Fill-35" fill="#368F3F"></path></g><g id="Consejer&#xED;a-de-Sanida" transform="translate(88.195, 41.59)" fill="#2E2925" fill-rule="nonzero"><path d="M5.565,13.605 C6.99,13.605 8.115,13.035 9,12.015 L8.07,10.92 C7.41,11.64 6.645,12.09 5.625,12.09 C3.675,12.09 2.445,10.485 2.445,7.86 C2.445,5.265 3.765,3.675 5.67,3.675 C6.57,3.675 7.26,4.08 7.83,4.665 L8.775,3.555 C8.1,2.82 7.02,2.16 5.64,2.16 C2.85,2.16 0.66,4.32 0.66,7.92 C0.66,11.535 2.79,13.605 5.565,13.605 Z" id="Path"></path><path d="M14.2,13.605 C16.24,13.605 18.085,12.03 18.085,9.285 C18.085,6.54 16.24,4.95 14.2,4.95 C12.16,4.95 10.315,6.54 10.315,9.285 C10.315,12.03 12.16,13.605 14.2,13.605 Z M14.2,12.195 C12.91,12.195 12.1,11.04 12.1,9.285 C12.1,7.545 12.91,6.375 14.2,6.375 C15.505,6.375 16.315,7.545 16.315,9.285 C16.315,11.04 15.505,12.195 14.2,12.195 Z" id="Shape"></path><path d="M20.21,13.41 L21.935,13.41 L21.935,7.56 C22.655,6.825 23.18,6.435 23.945,6.435 C24.92,6.435 25.34,7.005 25.34,8.43 L25.34,13.41 L27.065,13.41 L27.065,8.22 C27.065,6.12 26.285,4.95 24.53,4.95 C23.405,4.95 22.565,5.565 21.8,6.3 L21.755,6.3 L21.62,5.16 L20.21,5.16 L20.21,13.41 Z" id="Path"></path><path d="M31.905,13.605 C33.945,13.605 35.04,12.48 35.04,11.1 C35.04,9.54 33.765,9.03 32.61,8.595 C31.71,8.265 30.9,7.995 30.9,7.29 C30.9,6.72 31.32,6.27 32.235,6.27 C32.91,6.27 33.495,6.57 34.065,6.99 L34.875,5.925 C34.215,5.4 33.3,4.95 32.205,4.95 C30.375,4.95 29.265,5.985 29.265,7.365 C29.265,8.76 30.48,9.345 31.59,9.765 C32.475,10.11 33.405,10.44 33.405,11.19 C33.405,11.82 32.94,12.3 31.95,12.3 C31.065,12.3 30.345,11.925 29.61,11.355 L28.8,12.465 C29.61,13.125 30.765,13.605 31.905,13.605 Z" id="Path"></path><path d="M40.405,13.605 C41.485,13.605 42.43,13.245 43.195,12.735 L42.595,11.64 C41.995,12.03 41.365,12.255 40.63,12.255 C39.205,12.255 38.215,11.31 38.08,9.735 L43.435,9.735 C43.48,9.525 43.525,9.195 43.525,8.85 C43.525,6.525 42.34,4.95 40.15,4.95 C38.23,4.95 36.385,6.615 36.385,9.285 C36.385,12.015 38.17,13.605 40.405,13.605 Z M38.065,8.535 C38.23,7.095 39.145,6.3 40.18,6.3 C41.38,6.3 42.025,7.125 42.025,8.535 L38.065,8.535 Z" id="Shape"></path><path d="M44.795,16.965 C46.625,16.965 47.285,15.75 47.285,14.025 L47.285,5.16 L45.56,5.16 L45.56,14.055 C45.56,15.03 45.35,15.585 44.585,15.585 C44.315,15.585 44.06,15.51 43.835,15.45 L43.52,16.74 C43.82,16.86 44.24,16.965 44.795,16.965 Z M46.4,3.615 C47.03,3.615 47.48,3.21 47.48,2.58 C47.48,1.965 47.03,1.56 46.4,1.56 C45.77,1.56 45.335,1.965 45.335,2.58 C45.335,3.21 45.77,3.615 46.4,3.615 Z" id="Shape"></path><path d="M53.415,13.605 C54.495,13.605 55.44,13.245 56.205,12.735 L55.605,11.64 C55.005,12.03 54.375,12.255 53.64,12.255 C52.215,12.255 51.225,11.31 51.09,9.735 L56.445,9.735 C56.49,9.525 56.535,9.195 56.535,8.85 C56.535,6.525 55.35,4.95 53.16,4.95 C51.24,4.95 49.395,6.615 49.395,9.285 C49.395,12.015 51.18,13.605 53.415,13.605 Z M51.075,8.535 C51.24,7.095 52.155,6.3 53.19,6.3 C54.39,6.3 55.035,7.125 55.035,8.535 L51.075,8.535 Z" id="Shape"></path><path d="M58.555,13.41 L60.28,13.41 L60.28,8.265 C60.79,6.96 61.6,6.495 62.275,6.495 C62.605,6.495 62.815,6.54 63.1,6.63 L63.415,5.13 C63.16,5.01 62.89,4.95 62.485,4.95 C61.6,4.95 60.73,5.58 60.145,6.645 L60.1,6.645 L59.965,5.16 L58.555,5.16 L58.555,13.41 Z" id="Path"></path><path d="M64.79,13.41 L66.515,13.41 L66.515,5.16 L64.79,5.16 L64.79,13.41 Z M65.54,3.75 L68.315,1.14 L67.115,0 L64.67,2.895 L65.54,3.75 Z" id="Shape"></path><path d="M71.145,13.605 C72.135,13.605 73.02,13.11 73.77,12.465 L73.83,12.465 L73.965,13.41 L75.375,13.41 L75.375,8.445 C75.375,6.255 74.43,4.95 72.375,4.95 C71.055,4.95 69.9,5.49 69.045,6.03 L69.69,7.2 C70.395,6.75 71.205,6.36 72.075,6.36 C73.29,6.36 73.635,7.2 73.65,8.16 C70.215,8.535 68.715,9.45 68.715,11.22 C68.715,12.675 69.72,13.605 71.145,13.605 Z M71.67,12.24 C70.935,12.24 70.38,11.91 70.38,11.1 C70.38,10.17 71.205,9.54 73.65,9.255 L73.65,11.28 C72.975,11.895 72.39,12.24 71.67,12.24 Z" id="Shape"></path><path d="M84.245,13.605 C85.175,13.605 86.03,13.11 86.645,12.48 L86.705,12.48 L86.84,13.41 L88.25,13.41 L88.25,1.455 L86.525,1.455 L86.525,4.515 L86.6,5.88 C85.925,5.31 85.325,4.95 84.38,4.95 C82.535,4.95 80.84,6.615 80.84,9.285 C80.84,12.03 82.175,13.605 84.245,13.605 Z M84.65,12.18 C83.36,12.18 82.625,11.145 82.625,9.27 C82.625,7.485 83.555,6.39 84.71,6.39 C85.325,6.39 85.91,6.585 86.525,7.14 L86.525,11.175 C85.925,11.865 85.34,12.18 84.65,12.18 Z" id="Shape"></path><path d="M94.38,13.605 C95.46,13.605 96.405,13.245 97.17,12.735 L96.57,11.64 C95.97,12.03 95.34,12.255 94.605,12.255 C93.18,12.255 92.19,11.31 92.055,9.735 L97.41,9.735 C97.455,9.525 97.5,9.195 97.5,8.85 C97.5,6.525 96.315,4.95 94.125,4.95 C92.205,4.95 90.36,6.615 90.36,9.285 C90.36,12.015 92.145,13.605 94.38,13.605 Z M92.04,8.535 C92.205,7.095 93.12,6.3 94.155,6.3 C95.355,6.3 96,7.125 96,8.535 L92.04,8.535 Z" id="Shape"></path><path d="M106.295,13.605 C108.71,13.605 110.18,12.165 110.18,10.395 C110.18,8.775 109.235,7.965 107.93,7.41 L106.415,6.765 C105.515,6.405 104.63,6.045 104.63,5.085 C104.63,4.215 105.365,3.675 106.49,3.675 C107.465,3.675 108.23,4.05 108.92,4.665 L109.835,3.555 C108.995,2.7 107.78,2.16 106.49,2.16 C104.39,2.16 102.86,3.465 102.86,5.205 C102.86,6.81 104.045,7.65 105.11,8.1 L106.64,8.76 C107.66,9.21 108.41,9.525 108.41,10.53 C108.41,11.46 107.66,12.09 106.325,12.09 C105.26,12.09 104.18,11.58 103.385,10.785 L102.365,11.985 C103.37,13.005 104.78,13.605 106.295,13.605 Z" id="Path"></path><path d="M114.165,13.605 C115.155,13.605 116.04,13.11 116.79,12.465 L116.85,12.465 L116.985,13.41 L118.395,13.41 L118.395,8.445 C118.395,6.255 117.45,4.95 115.395,4.95 C114.075,4.95 112.92,5.49 112.065,6.03 L112.71,7.2 C113.415,6.75 114.225,6.36 115.095,6.36 C116.31,6.36 116.655,7.2 116.67,8.16 C113.235,8.535 111.735,9.45 111.735,11.22 C111.735,12.675 112.74,13.605 114.165,13.605 Z M114.69,12.24 C113.955,12.24 113.4,11.91 113.4,11.1 C113.4,10.17 114.225,9.54 116.67,9.255 L116.67,11.28 C115.995,11.895 115.41,12.24 114.69,12.24 Z" id="Shape"></path><path d="M120.94,13.41 L122.665,13.41 L122.665,7.56 C123.385,6.825 123.91,6.435 124.675,6.435 C125.65,6.435 126.07,7.005 126.07,8.43 L126.07,13.41 L127.795,13.41 L127.795,8.22 C127.795,6.12 127.015,4.95 125.26,4.95 C124.135,4.95 123.295,5.565 122.53,6.3 L122.485,6.3 L122.35,5.16 L120.94,5.16 L120.94,13.41 Z" id="Path"></path><path d="M130.4,13.41 L132.125,13.41 L132.125,5.16 L130.4,5.16 L130.4,13.41 Z M131.255,3.615 C131.885,3.615 132.335,3.21 132.335,2.58 C132.335,1.965 131.885,1.56 131.255,1.56 C130.625,1.56 130.19,1.965 130.19,2.58 C130.19,3.21 130.625,3.615 131.255,3.615 Z" id="Shape"></path><path d="M137.655,13.605 C138.585,13.605 139.44,13.11 140.055,12.48 L140.115,12.48 L140.25,13.41 L141.66,13.41 L141.66,1.455 L139.935,1.455 L139.935,4.515 L140.01,5.88 C139.335,5.31 138.735,4.95 137.79,4.95 C135.945,4.95 134.25,6.615 134.25,9.285 C134.25,12.03 135.585,13.605 137.655,13.605 Z M138.06,12.18 C136.77,12.18 136.035,11.145 136.035,9.27 C136.035,7.485 136.965,6.39 138.12,6.39 C138.735,6.39 139.32,6.585 139.935,7.14 L139.935,11.175 C139.335,11.865 138.75,12.18 138.06,12.18 Z" id="Shape"></path><path d="M146.305,13.605 C147.295,13.605 148.18,13.11 148.93,12.465 L148.99,12.465 L149.125,13.41 L150.535,13.41 L150.535,8.445 C150.535,6.255 149.59,4.95 147.535,4.95 C146.215,4.95 145.06,5.49 144.205,6.03 L144.85,7.2 C145.555,6.75 146.365,6.36 147.235,6.36 C148.45,6.36 148.795,7.2 148.81,8.16 C145.375,8.535 143.875,9.45 143.875,11.22 C143.875,12.675 144.88,13.605 146.305,13.605 Z M146.83,12.24 C146.095,12.24 145.54,11.91 145.54,11.1 C145.54,10.17 146.365,9.54 148.81,9.255 L148.81,11.28 C148.135,11.895 147.55,12.24 146.83,12.24 Z" id="Shape"></path><path d="M155.93,13.605 C156.86,13.605 157.715,13.11 158.33,12.48 L158.39,12.48 L158.525,13.41 L159.935,13.41 L159.935,1.455 L158.21,1.455 L158.21,4.515 L158.285,5.88 C157.61,5.31 157.01,4.95 156.065,4.95 C154.22,4.95 152.525,6.615 152.525,9.285 C152.525,12.03 153.86,13.605 155.93,13.605 Z M156.335,12.18 C155.045,12.18 154.31,11.145 154.31,9.27 C154.31,7.485 155.24,6.39 156.395,6.39 C157.01,6.39 157.595,6.585 158.21,7.14 L158.21,11.175 C157.61,11.865 157.025,12.18 156.335,12.18 Z" id="Shape"></path><path d="M162.51,16.41 C164.055,15.825 164.97,14.61 164.97,13.035 C164.97,11.88 164.475,11.175 163.635,11.175 C162.975,11.175 162.435,11.61 162.435,12.285 C162.435,13.005 162.975,13.395 163.59,13.395 C163.65,13.395 163.695,13.395 163.755,13.38 C163.755,14.25 163.155,15.015 162.12,15.435 L162.51,16.41 Z" id="Path"></path><path d="M170.825,13.41 L172.565,13.41 L172.565,9.225 L174.23,9.225 C176.63,9.225 178.385,8.115 178.385,5.7 C178.385,3.21 176.63,2.355 174.17,2.355 L170.825,2.355 L170.825,13.41 Z M172.565,7.83 L172.565,3.765 L174.005,3.765 C175.76,3.765 176.675,4.245 176.675,5.7 C176.675,7.155 175.835,7.83 174.065,7.83 L172.565,7.83 Z" id="Shape"></path><path d="M180.48,13.41 L182.205,13.41 L182.205,8.265 C182.715,6.96 183.525,6.495 184.2,6.495 C184.53,6.495 184.74,6.54 185.025,6.63 L185.34,5.13 C185.085,5.01 184.815,4.95 184.41,4.95 C183.525,4.95 182.655,5.58 182.07,6.645 L182.025,6.645 L181.89,5.16 L180.48,5.16 L180.48,13.41 Z" id="Path"></path><path d="M189.985,13.605 C191.065,13.605 192.01,13.245 192.775,12.735 L192.175,11.64 C191.575,12.03 190.945,12.255 190.21,12.255 C188.785,12.255 187.795,11.31 187.66,9.735 L193.015,9.735 C193.06,9.525 193.105,9.195 193.105,8.85 C193.105,6.525 191.92,4.95 189.73,4.95 C187.81,4.95 185.965,6.615 185.965,9.285 C185.965,12.015 187.75,13.605 189.985,13.605 Z M187.645,8.535 C187.81,7.095 188.725,6.3 189.76,6.3 C190.96,6.3 191.605,7.125 191.605,8.535 L187.645,8.535 Z" id="Shape"></path><path d="M197.36,13.605 C199.4,13.605 200.495,12.48 200.495,11.1 C200.495,9.54 199.22,9.03 198.065,8.595 C197.165,8.265 196.355,7.995 196.355,7.29 C196.355,6.72 196.775,6.27 197.69,6.27 C198.365,6.27 198.95,6.57 199.52,6.99 L200.33,5.925 C199.67,5.4 198.755,4.95 197.66,4.95 C195.83,4.95 194.72,5.985 194.72,7.365 C194.72,8.76 195.935,9.345 197.045,9.765 C197.93,10.11 198.86,10.44 198.86,11.19 C198.86,11.82 198.395,12.3 197.405,12.3 C196.52,12.3 195.8,11.925 195.065,11.355 L194.255,12.465 C195.065,13.125 196.22,13.605 197.36,13.605 Z" id="Path"></path><path d="M202.425,13.41 L204.15,13.41 L204.15,5.16 L202.425,5.16 L202.425,13.41 Z M203.28,3.615 C203.91,3.615 204.36,3.21 204.36,2.58 C204.36,1.965 203.91,1.56 203.28,1.56 C202.65,1.56 202.215,1.965 202.215,2.58 C202.215,3.21 202.65,3.615 203.28,3.615 Z" id="Shape"></path><path d="M209.68,13.605 C210.61,13.605 211.465,13.11 212.08,12.48 L212.14,12.48 L212.275,13.41 L213.685,13.41 L213.685,1.455 L211.96,1.455 L211.96,4.515 L212.035,5.88 C211.36,5.31 210.76,4.95 209.815,4.95 C207.97,4.95 206.275,6.615 206.275,9.285 C206.275,12.03 207.61,13.605 209.68,13.605 Z M210.085,12.18 C208.795,12.18 208.06,11.145 208.06,9.27 C208.06,7.485 208.99,6.39 210.145,6.39 C210.76,6.39 211.345,6.585 211.96,7.14 L211.96,11.175 C211.36,11.865 210.775,12.18 210.085,12.18 Z" id="Shape"></path><path d="M219.815,13.605 C220.895,13.605 221.84,13.245 222.605,12.735 L222.005,11.64 C221.405,12.03 220.775,12.255 220.04,12.255 C218.615,12.255 217.625,11.31 217.49,9.735 L222.845,9.735 C222.89,9.525 222.935,9.195 222.935,8.85 C222.935,6.525 221.75,4.95 219.56,4.95 C217.64,4.95 215.795,6.615 215.795,9.285 C215.795,12.015 217.58,13.605 219.815,13.605 Z M217.475,8.535 C217.64,7.095 218.555,6.3 219.59,6.3 C220.79,6.3 221.435,7.125 221.435,8.535 L217.475,8.535 Z" id="Shape"></path><path d="M224.955,13.41 L226.68,13.41 L226.68,7.56 C227.4,6.825 227.925,6.435 228.69,6.435 C229.665,6.435 230.085,7.005 230.085,8.43 L230.085,13.41 L231.81,13.41 L231.81,8.22 C231.81,6.12 231.03,4.95 229.275,4.95 C228.15,4.95 227.31,5.565 226.545,6.3 L226.5,6.3 L226.365,5.16 L224.955,5.16 L224.955,13.41 Z" id="Path"></path><path d="M237.775,13.605 C238.72,13.605 239.695,13.26 240.46,12.585 L239.74,11.445 C239.245,11.865 238.63,12.195 237.94,12.195 C236.575,12.195 235.615,11.04 235.615,9.285 C235.615,7.545 236.605,6.375 238,6.375 C238.555,6.375 239.02,6.615 239.47,7.02 L240.325,5.895 C239.725,5.37 238.96,4.95 237.91,4.95 C235.735,4.95 233.83,6.54 233.83,9.285 C233.83,12.03 235.54,13.605 237.775,13.605 Z" id="Path"></path><path d="M242.27,13.41 L243.995,13.41 L243.995,5.16 L242.27,5.16 L242.27,13.41 Z M243.125,3.615 C243.755,3.615 244.205,3.21 244.205,2.58 C244.205,1.965 243.755,1.56 243.125,1.56 C242.495,1.56 242.06,1.965 242.06,2.58 C242.06,3.21 242.495,3.615 243.125,3.615 Z" id="Shape"></path><path d="M248.625,13.605 C249.615,13.605 250.5,13.11 251.25,12.465 L251.31,12.465 L251.445,13.41 L252.855,13.41 L252.855,8.445 C252.855,6.255 251.91,4.95 249.855,4.95 C248.535,4.95 247.38,5.49 246.525,6.03 L247.17,7.2 C247.875,6.75 248.685,6.36 249.555,6.36 C250.77,6.36 251.115,7.2 251.13,8.16 C247.695,8.535 246.195,9.45 246.195,11.22 C246.195,12.675 247.2,13.605 248.625,13.605 Z M249.15,12.24 C248.415,12.24 247.86,11.91 247.86,11.1 C247.86,10.17 248.685,9.54 251.13,9.255 L251.13,11.28 C250.455,11.895 249.87,12.24 249.15,12.24 Z" id="Shape"></path><path d="M1.485,32.86 C3.225,32.86 4.095,31.675 4.74,29.905 L7.77,21.16 L6.09,21.16 L4.77,25.405 C4.56,26.155 4.335,26.98 4.125,27.73 L4.05,27.73 C3.795,26.965 3.54,26.14 3.3,25.405 L1.77,21.16 L0,21.16 L3.27,29.35 L3.105,29.92 C2.805,30.805 2.28,31.465 1.38,31.465 C1.17,31.465 0.93,31.39 0.78,31.345 L0.45,32.695 C0.735,32.8 1.065,32.86 1.485,32.86 Z" id="Path"></path><polygon id="Path" points="12.995 29.41 19.685 29.41 19.685 27.94 14.735 27.94 14.735 24.37 18.785 24.37 18.785 22.9 14.735 22.9 14.735 19.825 19.52 19.825 19.52 18.355 12.995 18.355"></polygon><path d="M21.945,29.41 L23.67,29.41 L23.67,23.56 C24.345,22.81 24.96,22.435 25.515,22.435 C26.46,22.435 26.895,23.005 26.895,24.43 L26.895,29.41 L28.62,29.41 L28.62,23.56 C29.31,22.81 29.91,22.435 30.48,22.435 C31.41,22.435 31.86,23.005 31.86,24.43 L31.86,29.41 L33.585,29.41 L33.585,24.22 C33.585,22.12 32.775,20.95 31.05,20.95 C30.015,20.95 29.175,21.595 28.365,22.465 C28.005,21.52 27.315,20.95 26.085,20.95 C25.065,20.95 24.24,21.565 23.535,22.315 L23.49,22.315 L23.355,21.16 L21.945,21.16 L21.945,29.41 Z" id="Path"></path><path d="M39.61,29.605 C40.69,29.605 41.635,29.245 42.4,28.735 L41.8,27.64 C41.2,28.03 40.57,28.255 39.835,28.255 C38.41,28.255 37.42,27.31 37.285,25.735 L42.64,25.735 C42.685,25.525 42.73,25.195 42.73,24.85 C42.73,22.525 41.545,20.95 39.355,20.95 C37.435,20.95 35.59,22.615 35.59,25.285 C35.59,28.015 37.375,29.605 39.61,29.605 Z M37.27,24.535 C37.435,23.095 38.35,22.3 39.385,22.3 C40.585,22.3 41.23,23.125 41.23,24.535 L37.27,24.535 Z" id="Shape"></path><path d="M44.75,29.41 L46.475,29.41 L46.475,24.265 C46.985,22.96 47.795,22.495 48.47,22.495 C48.8,22.495 49.01,22.54 49.295,22.63 L49.61,21.13 C49.355,21.01 49.085,20.95 48.68,20.95 C47.795,20.95 46.925,21.58 46.34,22.645 L46.295,22.645 L46.16,21.16 L44.75,21.16 L44.75,29.41 Z" id="Path"></path><path d="M53.64,33.115 C56.28,33.115 57.96,31.825 57.96,30.235 C57.96,28.825 56.94,28.225 54.99,28.225 L53.475,28.225 C52.425,28.225 52.095,27.91 52.095,27.415 C52.095,27.01 52.275,26.785 52.545,26.545 C52.905,26.71 53.325,26.8 53.7,26.8 C55.425,26.8 56.79,25.765 56.79,23.965 C56.79,23.335 56.565,22.78 56.25,22.45 L57.825,22.45 L57.825,21.16 L54.9,21.16 C54.585,21.04 54.165,20.95 53.7,20.95 C51.99,20.95 50.505,22.045 50.505,23.905 C50.505,24.895 51.03,25.675 51.6,26.11 L51.6,26.17 C51.135,26.5 50.67,27.055 50.67,27.7 C50.67,28.375 51,28.81 51.42,29.065 L51.42,29.14 C50.655,29.605 50.22,30.25 50.22,30.94 C50.22,32.38 51.66,33.115 53.64,33.115 Z M53.7,25.69 C52.845,25.69 52.14,25.015 52.14,23.905 C52.14,22.795 52.83,22.165 53.7,22.165 C54.57,22.165 55.26,22.81 55.26,23.905 C55.26,25.015 54.555,25.69 53.7,25.69 Z M53.895,31.975 C52.53,31.975 51.69,31.495 51.69,30.685 C51.69,30.265 51.9,29.845 52.395,29.485 C52.74,29.56 53.115,29.605 53.505,29.605 L54.75,29.605 C55.755,29.605 56.295,29.815 56.295,30.505 C56.295,31.27 55.335,31.975 53.895,31.975 Z" id="Shape"></path><path d="M62.77,29.605 C63.85,29.605 64.795,29.245 65.56,28.735 L64.96,27.64 C64.36,28.03 63.73,28.255 62.995,28.255 C61.57,28.255 60.58,27.31 60.445,25.735 L65.8,25.735 C65.845,25.525 65.89,25.195 65.89,24.85 C65.89,22.525 64.705,20.95 62.515,20.95 C60.595,20.95 58.75,22.615 58.75,25.285 C58.75,28.015 60.535,29.605 62.77,29.605 Z M60.43,24.535 C60.595,23.095 61.51,22.3 62.545,22.3 C63.745,22.3 64.39,23.125 64.39,24.535 L60.43,24.535 Z" id="Shape"></path><path d="M67.91,29.41 L69.635,29.41 L69.635,23.56 C70.355,22.825 70.88,22.435 71.645,22.435 C72.62,22.435 73.04,23.005 73.04,24.43 L73.04,29.41 L74.765,29.41 L74.765,24.22 C74.765,22.12 73.985,20.95 72.23,20.95 C71.105,20.95 70.265,21.565 69.5,22.3 L69.455,22.3 L69.32,21.16 L67.91,21.16 L67.91,29.41 Z" id="Path"></path><path d="M80.73,29.605 C81.675,29.605 82.65,29.26 83.415,28.585 L82.695,27.445 C82.2,27.865 81.585,28.195 80.895,28.195 C79.53,28.195 78.57,27.04 78.57,25.285 C78.57,23.545 79.56,22.375 80.955,22.375 C81.51,22.375 81.975,22.615 82.425,23.02 L83.28,21.895 C82.68,21.37 81.915,20.95 80.865,20.95 C78.69,20.95 76.785,22.54 76.785,25.285 C76.785,28.03 78.495,29.605 80.73,29.605 Z" id="Path"></path><path d="M85.225,29.41 L86.95,29.41 L86.95,21.16 L85.225,21.16 L85.225,29.41 Z M86.08,19.615 C86.71,19.615 87.16,19.21 87.16,18.58 C87.16,17.965 86.71,17.56 86.08,17.56 C85.45,17.56 85.015,17.965 85.015,18.58 C85.015,19.21 85.45,19.615 86.08,19.615 Z" id="Shape"></path><path d="M91.58,29.605 C92.57,29.605 93.455,29.11 94.205,28.465 L94.265,28.465 L94.4,29.41 L95.81,29.41 L95.81,24.445 C95.81,22.255 94.865,20.95 92.81,20.95 C91.49,20.95 90.335,21.49 89.48,22.03 L90.125,23.2 C90.83,22.75 91.64,22.36 92.51,22.36 C93.725,22.36 94.07,23.2 94.085,24.16 C90.65,24.535 89.15,25.45 89.15,27.22 C89.15,28.675 90.155,29.605 91.58,29.605 Z M92.105,28.24 C91.37,28.24 90.815,27.91 90.815,27.1 C90.815,26.17 91.64,25.54 94.085,25.255 L94.085,27.28 C93.41,27.895 92.825,28.24 92.105,28.24 Z" id="Shape"></path><path d="M100.59,29.605 C102.63,29.605 103.725,28.48 103.725,27.1 C103.725,25.54 102.45,25.03 101.295,24.595 C100.395,24.265 99.585,23.995 99.585,23.29 C99.585,22.72 100.005,22.27 100.92,22.27 C101.595,22.27 102.18,22.57 102.75,22.99 L103.56,21.925 C102.9,21.4 101.985,20.95 100.89,20.95 C99.06,20.95 97.95,21.985 97.95,23.365 C97.95,24.76 99.165,25.345 100.275,25.765 C101.16,26.11 102.09,26.44 102.09,27.19 C102.09,27.82 101.625,28.3 100.635,28.3 C99.75,28.3 99.03,27.925 98.295,27.355 L97.485,28.465 C98.295,29.125 99.45,29.605 100.59,29.605 Z" id="Path"></path></g><g id="Junta-de-Andaluc&#xED;a" transform="translate(88.414, 18.368)" fill="#2E2925" fill-rule="nonzero"><path d="M4.122,16.884 C6.984,16.884 8.244,14.832 8.244,12.33 L8.244,3.294 L5.58,3.294 L5.58,12.114 C5.58,13.95 4.968,14.58 3.798,14.58 C3.042,14.58 2.34,14.166 1.818,13.194 L0,14.544 C0.882,16.092 2.178,16.884 4.122,16.884 Z" id="Path"></path><path d="M14.352286,16.884 C15.720286,16.884 16.692286,16.218 17.556286,15.192 L17.628286,15.192 L17.826286,16.632 L19.986286,16.632 L19.986286,6.552 L17.340286,6.552 L17.340286,13.356 C16.656286,14.256 16.116286,14.616 15.288286,14.616 C14.316286,14.616 13.884286,14.058 13.884286,12.51 L13.884286,6.552 L11.238286,6.552 L11.238286,12.852 C11.238286,15.372 12.174286,16.884 14.352286,16.884 Z" id="Path"></path><path d="M22.926572,16.632 L25.572572,16.632 L25.572572,9.702 C26.310572,8.964 26.832572,8.568 27.660572,8.568 C28.650572,8.568 29.082572,9.108 29.082572,10.674 L29.082572,16.632 L31.728572,16.632 L31.728572,10.35 C31.728572,7.812 30.792572,6.3 28.614572,6.3 C27.246572,6.3 26.220572,7.02 25.338572,7.884 L25.284572,7.884 L25.086572,6.552 L22.926572,6.552 L22.926572,16.632 Z" id="Path"></path><path d="M38.268858,16.884 C39.150858,16.884 39.852858,16.686 40.392858,16.506 L39.960858,14.58 C39.690858,14.688 39.294858,14.796 38.970858,14.796 C38.070858,14.796 37.602858,14.256 37.602858,13.104 L37.602858,8.64 L40.086858,8.64 L40.086858,6.552 L37.602858,6.552 L37.602858,3.834 L35.406858,3.834 L35.100858,6.552 L33.534858,6.678 L33.534858,8.64 L34.956858,8.64 L34.956858,13.104 C34.956858,15.354 35.874858,16.884 38.268858,16.884 Z" id="Path"></path><path d="M44.323144,16.884 C45.475144,16.884 46.483144,16.308 47.365144,15.552 L47.437144,15.552 L47.617144,16.632 L49.777144,16.632 L49.777144,10.746 C49.777144,7.83 48.463144,6.3 45.907144,6.3 C44.323144,6.3 42.883144,6.894 41.695144,7.632 L42.649144,9.378 C43.585144,8.838 44.485144,8.424 45.421144,8.424 C46.663144,8.424 47.095144,9.18 47.149144,10.17 C43.081144,10.602 41.335144,11.736 41.335144,13.896 C41.335144,15.606 42.523144,16.884 44.323144,16.884 Z M45.187144,14.814 C44.413144,14.814 43.855144,14.472 43.855144,13.68 C43.855144,12.78 44.683144,12.096 47.149144,11.79 L47.149144,13.824 C46.501144,14.454 45.943144,14.814 45.187144,14.814 Z" id="Shape"></path><path d="M60.337716,16.884 C61.381716,16.884 62.389716,16.308 63.127716,15.588 L63.199716,15.588 L63.397716,16.632 L65.539716,16.632 L65.539716,2.268 L62.911716,2.268 L62.911716,5.814 L63.001716,7.398 C62.281716,6.732 61.579716,6.3 60.445716,6.3 C58.267716,6.3 56.215716,8.316 56.215716,11.592 C56.215716,14.904 57.835716,16.884 60.337716,16.884 Z M61.021716,14.706 C59.689716,14.706 58.933716,13.662 58.933716,11.574 C58.933716,9.558 59.887716,8.478 61.021716,8.478 C61.651716,8.478 62.299716,8.676 62.911716,9.234 L62.911716,13.662 C62.317716,14.418 61.723716,14.706 61.021716,14.706 Z" id="Shape"></path><path d="M72.890002,16.884 C74.132002,16.884 75.410002,16.452 76.400002,15.768 L75.500002,14.148 C74.780002,14.598 74.060002,14.85 73.232002,14.85 C71.738002,14.85 70.658002,13.986 70.442002,12.33 L76.652002,12.33 C76.724002,12.096 76.778002,11.61 76.778002,11.106 C76.778002,8.334 75.338002,6.3 72.566002,6.3 C70.172002,6.3 67.868002,8.334 67.868002,11.592 C67.868002,14.922 70.064002,16.884 72.890002,16.884 Z M70.406002,10.566 C70.604002,9.108 71.540002,8.352 72.602002,8.352 C73.898002,8.352 74.510002,9.216 74.510002,10.566 L70.406002,10.566 Z" id="Shape"></path><path d="M86.384574,9.684 C86.780574,8.298 87.176574,6.786 87.518574,5.328 L87.608574,5.328 C87.986574,6.768 88.346574,8.298 88.760574,9.684 L89.156574,11.142 L85.988574,11.142 L86.384574,9.684 Z M81.776574,16.632 L84.476574,16.632 L85.412574,13.212 L89.732574,13.212 L90.668574,16.632 L93.458574,16.632 L89.174574,3.294 L86.042574,3.294 L81.776574,16.632 Z" id="Shape"></path><path d="M94.92286,16.632 L97.56886,16.632 L97.56886,9.702 C98.30686,8.964 98.82886,8.568 99.65686,8.568 C100.64686,8.568 101.07886,9.108 101.07886,10.674 L101.07886,16.632 L103.72486,16.632 L103.72486,10.35 C103.72486,7.812 102.78886,6.3 100.61086,6.3 C99.24286,6.3 98.21686,7.02 97.33486,7.884 L97.28086,7.884 L97.08286,6.552 L94.92286,6.552 L94.92286,16.632 Z" id="Path"></path><path d="M110.121146,16.884 C111.165146,16.884 112.173146,16.308 112.911146,15.588 L112.983146,15.588 L113.181146,16.632 L115.323146,16.632 L115.323146,2.268 L112.695146,2.268 L112.695146,5.814 L112.785146,7.398 C112.065146,6.732 111.363146,6.3 110.229146,6.3 C108.051146,6.3 105.999146,8.316 105.999146,11.592 C105.999146,14.904 107.619146,16.884 110.121146,16.884 Z M110.805146,14.706 C109.473146,14.706 108.717146,13.662 108.717146,11.574 C108.717146,9.558 109.671146,8.478 110.805146,8.478 C111.435146,8.478 112.083146,8.676 112.695146,9.234 L112.695146,13.662 C112.101146,14.418 111.507146,14.706 110.805146,14.706 Z" id="Shape"></path><path d="M120.765432,16.884 C121.917432,16.884 122.925432,16.308 123.807432,15.552 L123.879432,15.552 L124.059432,16.632 L126.219432,16.632 L126.219432,10.746 C126.219432,7.83 124.905432,6.3 122.349432,6.3 C120.765432,6.3 119.325432,6.894 118.137432,7.632 L119.091432,9.378 C120.027432,8.838 120.927432,8.424 121.863432,8.424 C123.105432,8.424 123.537432,9.18 123.591432,10.17 C119.523432,10.602 117.777432,11.736 117.777432,13.896 C117.777432,15.606 118.965432,16.884 120.765432,16.884 Z M121.629432,14.814 C120.855432,14.814 120.297432,14.472 120.297432,13.68 C120.297432,12.78 121.125432,12.096 123.591432,11.79 L123.591432,13.824 C122.943432,14.454 122.385432,14.814 121.629432,14.814 Z" id="Shape"></path><path d="M131.517718,16.884 C132.147718,16.884 132.579718,16.776 132.885718,16.65 L132.561718,14.688 C132.381718,14.724 132.309718,14.724 132.201718,14.724 C131.949718,14.724 131.679718,14.526 131.679718,13.914 L131.679718,2.268 L129.033718,2.268 L129.033718,13.806 C129.033718,15.678 129.681718,16.884 131.517718,16.884 Z" id="Path"></path><path d="M137.824004,16.884 C139.192004,16.884 140.164004,16.218 141.028004,15.192 L141.100004,15.192 L141.298004,16.632 L143.458004,16.632 L143.458004,6.552 L140.812004,6.552 L140.812004,13.356 C140.128004,14.256 139.588004,14.616 138.760004,14.616 C137.788004,14.616 137.356004,14.058 137.356004,12.51 L137.356004,6.552 L134.710004,6.552 L134.710004,12.852 C134.710004,15.372 135.646004,16.884 137.824004,16.884 Z" id="Path"></path><path d="M150.68229,16.884 C151.79829,16.884 153.02229,16.506 153.99429,15.66 L152.93229,13.914 C152.37429,14.382 151.69029,14.724 150.97029,14.724 C149.53029,14.724 148.46829,13.5 148.46829,11.592 C148.46829,9.702 149.51229,8.46 151.06029,8.46 C151.61829,8.46 152.08629,8.694 152.59029,9.126 L153.85029,7.416 C153.11229,6.786 152.15829,6.3 150.91629,6.3 C148.18029,6.3 145.76829,8.244 145.76829,11.592 C145.76829,14.94 147.89229,16.884 150.68229,16.884 Z" id="Path"></path><path d="M155.998576,16.632 L158.644576,16.632 L158.644576,6.552 L155.998576,6.552 L155.998576,16.632 Z M157.402576,4.932 L160.966576,1.764 L159.148576,0 L156.088576,3.654 L157.402576,4.932 Z" id="Shape"></path><path d="M164.068862,16.884 C165.220862,16.884 166.228862,16.308 167.110862,15.552 L167.182862,15.552 L167.362862,16.632 L169.522862,16.632 L169.522862,10.746 C169.522862,7.83 168.208862,6.3 165.652862,6.3 C164.068862,6.3 162.628862,6.894 161.440862,7.632 L162.394862,9.378 C163.330862,8.838 164.230862,8.424 165.166862,8.424 C166.408862,8.424 166.840862,9.18 166.894862,10.17 C162.826862,10.602 161.080862,11.736 161.080862,13.896 C161.080862,15.606 162.268862,16.884 164.068862,16.884 Z M164.932862,14.814 C164.158862,14.814 163.600862,14.472 163.600862,13.68 C163.600862,12.78 164.428862,12.096 166.894862,11.79 L166.894862,13.824 C166.246862,14.454 165.688862,14.814 164.932862,14.814 Z" id="Shape"></path></g></g></svg>