<svg xmlns="http://www.w3.org/2000/svg" xmlns:xlink="http://www.w3.org/1999/xlink" width="132px" height="79px" viewBox="0 0 132 79"><title>Group</title><defs><polygon id="path-1" points="0.0191 0.2775 47.3291 0.2775 47.3291 51 0.0191 51"></polygon><polygon id="path-3" points="0.6724 0.743 19.1569946 0.743 19.1569946 18.2476 0.6724 18.2476"></polygon></defs><g id="Page-1" stroke="none" stroke-width="1" fill="none" fill-rule="evenodd"><g id="A4" transform="translate(-166, -150)"><g id="Group" transform="translate(166, 149.2574)"><g id="Group-33"><g id="Group-5" transform="translate(65, 28)"><mask id="mask-2" fill="white"><use xlink:href="#path-1"></use></mask><g id="Clip-4"></g><path d="M47.3291,0.2775 L47.3291,34.4055 C47.3291,41.6645 41.3931,41.4175 34.1351,41.4175 L21.4981,41.4175 L14.3751,48.5395 C12.7801,50.1345 10.6781,51.0005 8.4531,51.0005 L8.4281,51.0005 C3.8031,51.0005 0.0441,47.2285 0.0191,42.6045 L0.0191,29.5585 L2.4431,29.5585 L2.4431,42.6045 C2.4681,45.8935 5.1261,48.5885 8.4281,48.5885 L8.4531,48.5885 C10.0481,48.5885 11.5191,47.9585 12.6571,46.8205 L20.5091,38.9935 L34.1351,38.9935 C40.0711,38.9935 44.9051,40.3405 44.9051,34.4055 L44.9051,0.3885 C45.1901,0.4385 45.4991,0.4635 45.7961,0.4635 C46.3281,0.4635 46.8341,0.4015 47.3291,0.2775" id="Fill-3" fill="#FD9827" mask="url(#mask-2)"></path></g><path d="M105.3428,18.4377 C105.0458,19.1797 104.8728,20.0077 104.8608,20.8617 L78.2138,20.8617 C72.2778,20.8617 67.4308,25.7087 67.4308,31.6317 L67.4308,33.5977 L65.0198,33.5977 L65.0198,31.6317 C65.0198,24.3737 70.9428,18.4377 78.2138,18.4377 L105.3428,18.4377 Z" id="Fill-6" fill="#FD9827"></path><path d="M111.8877,23.2365 C111.7437,23.2725 111.5827,23.2905 111.4217,23.2905 C111.2067,23.2905 111.0187,23.2635 110.8307,23.2095 C109.9347,22.9865 109.2627,22.2425 109.1287,21.3195 C109.1107,21.2035 109.1017,21.0865 109.1017,20.9705 C109.1017,20.7285 109.1467,20.4775 109.2187,20.2535 C109.4507,19.5095 110.0597,18.9275 110.8307,18.7305 C111.0187,18.6765 111.2247,18.6505 111.4217,18.6505 C111.5827,18.6505 111.7437,18.6685 111.8877,18.7035 C112.9447,18.9195 113.7417,19.8505 113.7417,20.9705 C113.7417,22.0905 112.9447,23.0305 111.8877,23.2365 M111.9607,16.9495 C111.7947,16.9185 111.6087,16.9075 111.4217,16.9075 C111.1937,16.9075 110.9557,16.9285 110.7377,16.9695 C109.0797,17.2495 107.7737,18.5145 107.4427,20.1415 C107.4317,20.1825 107.4217,20.2245 107.4217,20.2765 C107.3697,20.4935 107.3597,20.7325 107.3597,20.9705 C107.3597,21.0845 107.3697,21.1985 107.3797,21.3125 L107.3797,21.3745 C107.5557,23.1985 108.9447,24.6705 110.7377,24.9605 C110.7687,24.9705 110.8007,24.9705 110.8417,24.9705 C111.0277,25.0125 111.2247,25.0225 111.4217,25.0225 C111.5767,25.0225 111.7327,25.0125 111.8777,24.9915 C111.9087,24.9915 111.9297,24.9815 111.9607,24.9815 C113.9507,24.7215 115.4737,23.0325 115.4737,20.9705 C115.4737,18.9185 113.9507,17.2085 111.9607,16.9495" id="Fill-8" fill="#FD9827"></path><path d="M112.9663,6.6369 C114.5263,6.5689 116.1153,6.8739 117.5883,7.4759 C119.0673,8.0719 120.4223,8.9819 121.5713,10.0989 C122.7073,11.2299 123.6373,12.5709 124.2563,14.0409 C124.8813,15.5049 125.2093,17.0899 125.1633,18.6499 C124.7903,17.1369 124.2653,15.7029 123.5473,14.3829 C122.8243,13.0669 121.9303,11.8569 120.8633,10.8169 C119.8093,9.7659 118.5853,8.8899 117.2583,8.1879 C115.9263,7.4899 114.4863,6.9859 112.9663,6.6369" id="Fill-10" fill="#FD9827"></path><path d="M112.3291,11.5768 C114.1661,11.3568 116.0961,12.0878 117.5031,13.3528 C118.9071,14.6218 119.8331,16.4678 119.8001,18.3178 C119.4111,17.4838 118.9961,16.7158 118.5061,16.0098 C118.0171,15.3038 117.4521,14.6698 116.8281,14.1018 C116.2001,13.5368 115.5111,13.0408 114.7591,12.6258 C114.0061,12.2108 113.1991,11.8778 112.3291,11.5768" id="Fill-12" fill="#FD9827"></path><g id="Group-16" transform="translate(112, 0)"><mask id="mask-4" fill="white"><use xlink:href="#path-3"></use></mask><g id="Clip-15"></g><path d="M0.6724,0.7726 C2.9874,0.6246 5.3574,1.0286 7.5644,1.8786 C9.7794,2.7176 11.8184,4.0286 13.5604,5.6536 C15.2814,7.2996 16.7054,9.2626 17.6684,11.4276 C18.6414,13.5826 19.1774,15.9276 19.1564,18.2476 C18.5564,16.0096 17.7324,13.8976 16.6254,11.9566 C15.5124,10.0246 14.1464,8.2536 12.5314,6.7426 C10.9324,5.2126 9.0874,3.9486 7.0954,2.9456 C5.0964,1.9486 2.9404,1.2446 0.6724,0.7726" id="Fill-14" fill="#FD9827" mask="url(#mask-4)"></path></g><path d="M0,40.5319 L1.804,40.5319 L1.987,42.2829 C2.353,41.6039 2.885,41.0589 3.582,40.6489 C4.279,40.2399 5.011,40.0349 5.778,40.0349 C6.684,40.0349 7.49,40.2619 8.196,40.7149 C8.902,41.1679 9.451,41.7819 9.843,42.5579 C10.235,43.3339 10.432,44.2179 10.432,45.2119 L10.432,53.7349 L8.418,53.7349 L8.418,45.2119 C8.418,44.5669 8.301,43.9919 8.065,43.4859 C7.83,42.9809 7.481,42.5839 7.02,42.2969 C6.558,42.0089 6.03,41.8649 5.438,41.8649 C4.811,41.8649 4.235,42.0219 3.712,42.3359 C3.189,42.6499 2.771,43.0809 2.458,43.6299 C2.144,44.1789 1.987,44.8029 1.987,45.4989 L1.987,53.7349 L0,53.7349 L0,40.5319 Z" id="Fill-17" fill="#1B1A1A"></path><path d="M20.2222,51.7477 C20.8762,51.2947 21.3722,50.6717 21.7122,49.8777 C22.0522,49.0847 22.2222,48.1747 22.2222,47.1457 C22.2222,46.1177 22.0522,45.2027 21.7122,44.4007 C21.3722,43.5997 20.8762,42.9767 20.2222,42.5317 C19.5692,42.0867 18.8242,41.8647 17.9872,41.8647 C17.1332,41.8647 16.3832,42.0867 15.7382,42.5317 C15.0932,42.9767 14.5972,43.5997 14.2482,44.4007 C13.8992,45.2027 13.7252,46.1177 13.7252,47.1457 C13.7252,48.1747 13.8992,49.0847 14.2482,49.8777 C14.5972,50.6717 15.0932,51.2947 15.7382,51.7477 C16.3832,52.2007 17.1332,52.4277 17.9872,52.4277 C18.8242,52.4277 19.5692,52.2007 20.2222,51.7477 M14.7052,53.3297 C13.7732,52.7277 13.0452,51.8917 12.5232,50.8197 C12.0002,49.7477 11.7382,48.5227 11.7382,47.1457 C11.7382,45.7517 12.0002,44.5187 12.5232,43.4467 C13.0452,42.3747 13.7732,41.5387 14.7052,40.9367 C15.6382,40.3357 16.7322,40.0347 17.9872,40.0347 C19.2422,40.0347 20.3402,40.3357 21.2812,40.9367 C22.2222,41.5387 22.9502,42.3747 23.4642,43.4467 C23.9782,44.5187 24.2352,45.7517 24.2352,47.1457 C24.2352,48.5227 23.9782,49.7477 23.4642,50.8197 C22.9502,51.8917 22.2222,52.7277 21.2812,53.3297 C20.3402,53.9307 19.2422,54.2307 17.9872,54.2307 C16.7322,54.2307 15.6382,53.9307 14.7052,53.3297" id="Fill-19" fill="#1B1A1A"></path><path d="M28.1699,53.7477 C27.6039,53.4257 27.1679,52.9767 26.8629,52.4007 C26.5579,51.8257 26.4049,51.1727 26.4049,50.4407 L26.4049,42.1787 L23.8429,42.1787 L23.8429,40.5317 L26.4049,40.5317 L26.4049,36.7147 L28.3929,36.2437 L28.3929,40.5317 L33.3079,40.5317 L33.3079,42.1787 L28.3929,42.1787 L28.3929,50.1527 C28.3929,50.8507 28.5579,51.4167 28.8889,51.8517 C29.2199,52.2887 29.6819,52.5057 30.2749,52.5057 C30.8329,52.5057 31.3119,52.2837 31.7129,51.8387 C32.1129,51.3947 32.3489,50.7537 32.4189,49.9177 L34.0919,50.6497 C34.0039,51.7127 33.5859,52.5757 32.8369,53.2377 C32.0869,53.8997 31.1809,54.2307 30.1179,54.2307 C29.3859,54.2307 28.7359,54.0697 28.1699,53.7477" id="Fill-21" fill="#1B1A1A"></path><path d="M34.929,53.735 L36.916,53.735 L36.916,40.532 L34.929,40.532 L34.929,53.735 Z M34.876,37.59 C34.615,37.32 34.484,36.967 34.484,36.531 C34.484,36.113 34.615,35.769 34.876,35.499 C35.138,35.229 35.486,35.093 35.922,35.093 C36.357,35.093 36.715,35.229 36.994,35.499 C37.272,35.769 37.413,36.113 37.413,36.531 C37.413,36.967 37.272,37.32 36.994,37.59 C36.715,37.861 36.357,37.996 35.922,37.996 C35.486,37.996 35.138,37.861 34.876,37.59 L34.876,37.59 Z" id="Fill-23" fill="#1B1A1A"></path><path d="M40.4448,42.1789 L37.8038,42.1789 L37.8038,40.5319 L40.4448,40.5319 L40.4448,37.8649 C40.4448,37.1509 40.6108,36.5059 40.9418,35.9299 C41.2728,35.3549 41.7348,34.9069 42.3268,34.5839 C42.9198,34.2619 43.5908,34.0999 44.3408,34.0999 C45.0368,34.0999 45.6818,34.2399 46.2748,34.5189 C46.8668,34.7979 47.3418,35.2029 47.6998,35.7339 C48.0568,36.2659 48.2708,36.8629 48.3408,37.5249 L46.5888,38.2569 C46.5368,37.5079 46.3008,36.9149 45.8828,36.4789 C45.4648,36.0439 44.9848,35.8259 44.4448,35.8259 C43.8348,35.8259 43.3468,36.0529 42.9808,36.5059 C42.6148,36.9589 42.4318,37.5249 42.4318,38.2049 L42.4318,40.5319 L47.4518,40.5319 L47.4518,42.1789 L42.4318,42.1789 L42.4578,53.7349 L40.4708,53.7349 L40.4448,42.1789 Z" id="Fill-25" fill="#1D1D1B"></path><path d="M49.177,53.735 L51.164,53.735 L51.164,40.532 L49.177,40.532 L49.177,53.735 Z M49.125,37.59 C48.863,37.32 48.732,36.967 48.732,36.531 C48.732,36.113 48.863,35.769 49.125,35.499 C49.386,35.229 49.734,35.093 50.17,35.093 C50.605,35.093 50.963,35.229 51.242,35.499 C51.521,35.769 51.661,36.113 51.661,36.531 C51.661,36.967 51.521,37.32 51.242,37.59 C50.963,37.861 50.605,37.996 50.17,37.996 C49.734,37.996 49.386,37.861 49.125,37.59 L49.125,37.59 Z" id="Fill-26" fill="#1D1D1B"></path><path d="M55.791,53.3161 C54.85,52.7061 54.118,51.8651 53.595,50.7931 C53.072,49.7211 52.819,48.5051 52.836,47.1461 C52.836,45.7701 53.076,44.5451 53.556,43.4731 C54.035,42.4011 54.71,41.5601 55.582,40.9501 C56.453,40.3401 57.455,40.0351 58.588,40.0351 C59.459,40.0351 60.262,40.2271 60.994,40.6101 C61.726,40.9941 62.34,41.5121 62.837,42.1661 C63.333,42.8191 63.677,43.5821 63.87,44.4531 L61.961,44.9761 C61.717,44.0181 61.294,43.2511 60.693,42.6751 C60.092,42.1001 59.381,41.8131 58.562,41.8131 C57.865,41.8131 57.229,42.0391 56.654,42.4921 C56.079,42.9461 55.629,43.5771 55.307,44.3881 C54.984,45.1981 54.824,46.1181 54.824,47.1461 C54.824,48.1751 55.002,49.0901 55.359,49.8911 C55.716,50.6931 56.213,51.3251 56.85,51.7871 C57.486,52.2491 58.205,52.4801 59.007,52.4801 C59.704,52.4801 60.335,52.3141 60.902,51.9831 C61.468,51.6521 61.93,51.1901 62.288,50.5971 C62.645,50.0051 62.876,49.3341 62.98,48.5841 L64.889,49.0031 C64.749,50.0131 64.405,50.9161 63.856,51.7081 C63.307,52.5021 62.615,53.1201 61.778,53.5651 C60.941,54.0091 60.017,54.2311 59.007,54.2311 C57.804,54.2311 56.732,53.9261 55.791,53.3161" id="Fill-27" fill="#1D1D1B"></path><path d="M88.8613,53.5768 C88.0003,53.1358 87.3183,52.5238 86.8133,51.7398 C86.3093,50.9558 86.0293,50.0668 85.9733,49.0728 L87.7163,48.7368 C87.7163,49.4928 87.9023,50.1678 88.2733,50.7628 C88.6443,51.3578 89.1373,51.8268 89.7543,52.1698 C90.3693,52.5138 91.0483,52.6848 91.7903,52.6848 C92.4483,52.6848 93.0293,52.5658 93.5333,52.3268 C94.0373,52.0898 94.4263,51.7578 94.6993,51.3298 C94.9723,50.9028 95.1093,50.4378 95.1093,49.9338 C95.1093,49.3738 94.9413,48.9118 94.6043,48.5478 C94.2683,48.1838 93.8553,47.8968 93.3653,47.6868 C92.8753,47.4768 92.2173,47.2458 91.3913,46.9938 C90.3833,46.7278 89.5683,46.4478 88.9453,46.1538 C88.3223,45.8598 87.7903,45.4398 87.3493,44.8938 C86.9083,44.3478 86.6873,43.6338 86.6873,42.7518 C86.6873,41.9258 86.8773,41.1908 87.2553,40.5468 C87.6323,39.9028 88.1683,39.3888 88.8613,39.0028 C89.5543,38.6188 90.3553,38.4258 91.2653,38.4258 C92.1333,38.4258 92.9143,38.6118 93.6073,38.9818 C94.3003,39.3528 94.8573,39.8678 95.2773,40.5258 C95.6963,41.1838 95.9413,41.9328 96.0113,42.7728 L94.3313,43.1718 C94.2893,42.2338 93.9813,41.4678 93.4073,40.8718 C92.8333,40.2768 92.1273,39.9798 91.2863,39.9798 C90.7263,39.9798 90.2293,40.0948 89.7963,40.3258 C89.3613,40.5568 89.0253,40.8718 88.7873,41.2708 C88.5493,41.6698 88.4303,42.1008 88.4303,42.5628 C88.4303,43.1228 88.5983,43.5808 88.9343,43.9378 C89.2703,44.2948 89.6663,44.5678 90.1213,44.7568 C90.5763,44.9458 91.2373,45.1738 92.1053,45.4398 C93.0853,45.7058 93.8973,45.9888 94.5413,46.2898 C95.1853,46.5918 95.7313,47.0218 96.1793,47.5818 C96.6273,48.1418 96.8513,48.8698 96.8513,49.7648 C96.8513,50.6198 96.6453,51.3788 96.2323,52.0438 C95.8193,52.7088 95.2313,53.2408 94.4683,53.6398 C93.7053,54.0388 92.7993,54.2388 91.7483,54.2388 C90.6843,54.2388 89.7223,54.0178 88.8613,53.5768" id="Fill-31" fill="#1B1A1A"></path><path d="M103.2144,46.2375 C103.8444,46.2375 104.4114,46.1145 104.9154,45.8705 C105.4194,45.6255 105.8114,45.2855 106.0914,44.8515 C106.3714,44.4175 106.5114,43.9275 106.5114,43.3815 C106.5114,42.8075 106.3754,42.3035 106.1024,41.8695 C105.8294,41.4355 105.4374,41.0965 104.9264,40.8515 C104.4154,40.6065 103.8444,40.4835 103.2144,40.4835 L99.7074,40.4835 L99.7074,46.2375 L103.2144,46.2375 Z M98.0064,38.9295 L103.3194,38.9295 C104.2714,38.9295 105.1224,39.1185 105.8714,39.4965 C106.6194,39.8745 107.2084,40.4035 107.6354,41.0825 C108.0624,41.7615 108.2754,42.5285 108.2754,43.3815 C108.2754,44.2355 108.0584,44.9955 107.6244,45.6595 C107.1904,46.3255 106.5984,46.8505 105.8504,47.2355 C105.1014,47.6205 104.2574,47.8125 103.3194,47.8125 L99.7074,47.8125 L99.7074,53.7345 L98.0064,53.7345 L98.0064,38.9295 Z" id="Fill-32" fill="#1D1D1B"></path></g><g id="Logo_consejeria_escritorio" transform="translate(63, 34.7426)" fill="#FD9827" fill-rule="nonzero"><polygon id="Path" points="9.23584525 0.0285784483 13.1594367 0.0285784483 20.9883671 19.618479 17.0410993 19.618479"></polygon><polygon id="Path" points="13.1593324 0.0285784483 9.23615815 0.0285784483 0 19.618479 3.9249474 19.618479"></polygon><path d="M17.0405976,19.6194509 L20.9882678,19.6194509 C18.8610905,16.4335884 15.2272369,14.3322654 11.1021535,14.3322654 C10.4664967,14.3322654 9.84332105,14.3830824 9.23663868,14.4784754 L9.23663868,17.5408618 C9.84242952,17.4102535 10.4709543,17.3389316 11.1150806,17.3389316 C13.3960459,17.3389316 15.474635,18.2023729 17.0405976,19.6194509" id="Path"></path></g></g></g></g></svg>